<svg width="195" height="75" viewBox="0 0 195 75" fill="none" xmlns="http://www.w3.org/2000/svg">
<path d="M55.136 42.614C55.3267 42.6313 55.5434 42.6487 55.786 42.666C56.046 42.666 56.3494 42.666 56.696 42.666C58.724 42.666 60.2234 42.1547 61.194 41.132C62.182 40.1093 62.676 38.6967 62.676 36.894C62.676 35.0047 62.208 33.5747 61.272 32.604C60.336 31.6333 58.854 31.148 56.826 31.148C56.5487 31.148 56.2627 31.1567 55.968 31.174C55.6734 31.174 55.396 31.1913 55.136 31.226V42.614ZM66.862 36.894C66.862 38.454 66.6194 39.8147 66.134 40.976C65.6487 42.1373 64.9554 43.0993 64.054 43.862C63.17 44.6247 62.0867 45.1967 60.804 45.578C59.5214 45.9593 58.0827 46.15 56.488 46.15C55.76 46.15 54.9107 46.1153 53.94 46.046C52.9694 45.994 52.016 45.8727 51.08 45.682V28.132C52.016 27.9587 52.9867 27.846 53.992 27.794C55.0147 27.7247 55.89 27.69 56.618 27.69C58.1607 27.69 59.556 27.8633 60.804 28.21C62.0694 28.5567 63.1527 29.1027 64.054 29.848C64.9554 30.5933 65.6487 31.5467 66.134 32.708C66.6194 33.8693 66.862 35.2647 66.862 36.894Z" fill="#6A768F"/>
<path d="M73.8639 45.916H69.9899V32.24H73.8639V45.916ZM74.2279 28.288C74.2279 28.9987 73.9939 29.562 73.5259 29.978C73.0753 30.3767 72.5379 30.576 71.9139 30.576C71.2899 30.576 70.7439 30.3767 70.2759 29.978C69.8253 29.562 69.5999 28.9987 69.5999 28.288C69.5999 27.5773 69.8253 27.0227 70.2759 26.624C70.7439 26.208 71.2899 26 71.9139 26C72.5379 26 73.0753 26.208 73.5259 26.624C73.9939 27.0227 74.2279 27.5773 74.2279 28.288Z" fill="#6A768F"/>
<path d="M80.8173 45.916C79.9333 44.1827 79.032 42.1547 78.1133 39.832C77.212 37.5093 76.354 34.9787 75.5393 32.24H79.6473C79.8206 32.916 80.02 33.6527 80.2453 34.45C80.488 35.23 80.7306 36.0273 80.9733 36.842C81.2333 37.6393 81.4846 38.4193 81.7273 39.182C81.9873 39.9447 82.2386 40.638 82.4813 41.262C82.7066 40.638 82.9493 39.9447 83.2093 39.182C83.4693 38.4193 83.7206 37.6393 83.9633 36.842C84.2233 36.0273 84.466 35.23 84.6913 34.45C84.934 33.6527 85.142 32.916 85.3153 32.24H89.3193C88.5046 34.9787 87.638 37.5093 86.7193 39.832C85.818 42.1547 84.9253 44.1827 84.0413 45.916H80.8173Z" fill="#6A768F"/>
<path d="M96.3663 43.212C96.7477 43.212 97.1117 43.2033 97.4583 43.186C97.805 43.1687 98.0823 43.1427 98.2903 43.108V40.17C98.1343 40.1353 97.9003 40.1007 97.5883 40.066C97.2763 40.0313 96.9903 40.014 96.7303 40.014C96.3663 40.014 96.0197 40.04 95.6903 40.092C95.3783 40.1267 95.101 40.2047 94.8583 40.326C94.6157 40.4473 94.425 40.612 94.2863 40.82C94.1477 41.028 94.0783 41.288 94.0783 41.6C94.0783 42.2067 94.2777 42.6313 94.6763 42.874C95.0923 43.0993 95.6557 43.212 96.3663 43.212ZM96.0543 31.876C97.1983 31.876 98.1517 32.006 98.9143 32.266C99.677 32.526 100.284 32.8987 100.734 33.384C101.202 33.8693 101.532 34.4587 101.722 35.152C101.913 35.8453 102.008 36.6167 102.008 37.466V45.526C101.454 45.6473 100.682 45.786 99.6943 45.942C98.7063 46.1153 97.5103 46.202 96.1063 46.202C95.2223 46.202 94.4163 46.124 93.6883 45.968C92.9777 45.812 92.3623 45.5607 91.8423 45.214C91.3223 44.85 90.9237 44.382 90.6463 43.81C90.369 43.238 90.2303 42.536 90.2303 41.704C90.2303 40.9067 90.3863 40.2307 90.6983 39.676C91.0277 39.1213 91.461 38.6793 91.9983 38.35C92.5357 38.0207 93.151 37.7867 93.8443 37.648C94.5377 37.492 95.257 37.414 96.0023 37.414C96.505 37.414 96.947 37.44 97.3283 37.492C97.727 37.5267 98.0477 37.5787 98.2903 37.648V37.284C98.2903 36.6253 98.091 36.0967 97.6923 35.698C97.2937 35.2993 96.6003 35.1 95.6123 35.1C94.9537 35.1 94.3037 35.152 93.6623 35.256C93.021 35.3427 92.4663 35.4727 91.9983 35.646L91.5043 32.526C91.7297 32.4567 92.007 32.3873 92.3363 32.318C92.683 32.2313 93.0557 32.162 93.4543 32.11C93.853 32.0407 94.269 31.9887 94.7023 31.954C95.153 31.902 95.6037 31.876 96.0543 31.876Z" fill="#6A768F"/>
<path d="M120.234 46.28C117.304 46.28 115.068 45.4653 113.526 43.836C112 42.2067 111.238 39.8927 111.238 36.894C111.238 35.4033 111.472 34.0773 111.94 32.916C112.408 31.7373 113.049 30.7493 113.864 29.952C114.678 29.1373 115.649 28.522 116.776 28.106C117.902 27.69 119.124 27.482 120.442 27.482C121.204 27.482 121.898 27.5427 122.522 27.664C123.146 27.768 123.692 27.898 124.16 28.054C124.628 28.1927 125.018 28.34 125.33 28.496C125.642 28.652 125.867 28.7733 126.006 28.86L124.836 32.136C124.281 31.8413 123.631 31.59 122.886 31.382C122.158 31.174 121.326 31.07 120.39 31.07C119.766 31.07 119.15 31.174 118.544 31.382C117.954 31.59 117.426 31.928 116.958 32.396C116.507 32.8467 116.143 33.436 115.866 34.164C115.588 34.892 115.45 35.776 115.45 36.816C115.45 37.648 115.536 38.428 115.71 39.156C115.9 39.8667 116.195 40.482 116.594 41.002C117.01 41.522 117.547 41.938 118.206 42.25C118.864 42.5447 119.662 42.692 120.598 42.692C121.187 42.692 121.716 42.6573 122.184 42.588C122.652 42.5187 123.068 42.4407 123.432 42.354C123.796 42.25 124.116 42.1373 124.394 42.016C124.671 41.8947 124.922 41.782 125.148 41.678L126.266 44.928C125.694 45.2747 124.888 45.5867 123.848 45.864C122.808 46.1413 121.603 46.28 120.234 46.28Z" fill="#6A768F"/>
<path d="M127.662 39.182C127.662 37.9687 127.844 36.9113 128.208 36.01C128.59 35.0913 129.084 34.3287 129.69 33.722C130.297 33.1153 130.99 32.656 131.77 32.344C132.568 32.032 133.382 31.876 134.214 31.876C136.156 31.876 137.69 32.474 138.816 33.67C139.943 34.8487 140.506 36.5907 140.506 38.896C140.506 39.1213 140.498 39.3727 140.48 39.65C140.463 39.91 140.446 40.144 140.428 40.352H131.64C131.727 41.1493 132.1 41.782 132.758 42.25C133.417 42.718 134.301 42.952 135.41 42.952C136.121 42.952 136.814 42.8913 137.49 42.77C138.184 42.6313 138.747 42.4667 139.18 42.276L139.7 45.422C139.492 45.526 139.215 45.63 138.868 45.734C138.522 45.838 138.132 45.9247 137.698 45.994C137.282 46.0807 136.832 46.15 136.346 46.202C135.861 46.254 135.376 46.28 134.89 46.28C133.66 46.28 132.585 46.098 131.666 45.734C130.765 45.37 130.011 44.876 129.404 44.252C128.815 43.6107 128.373 42.8567 128.078 41.99C127.801 41.1233 127.662 40.1873 127.662 39.182ZM136.762 37.7C136.745 37.3707 136.684 37.05 136.58 36.738C136.494 36.426 136.346 36.1487 136.138 35.906C135.948 35.6633 135.696 35.464 135.384 35.308C135.09 35.152 134.717 35.074 134.266 35.074C133.833 35.074 133.46 35.152 133.148 35.308C132.836 35.4467 132.576 35.6373 132.368 35.88C132.16 36.1227 131.996 36.4087 131.874 36.738C131.77 37.05 131.692 37.3707 131.64 37.7H136.762Z" fill="#6A768F"/>
<path d="M143.496 32.708C144.154 32.5173 145.004 32.344 146.044 32.188C147.084 32.0147 148.176 31.928 149.32 31.928C150.481 31.928 151.443 32.084 152.206 32.396C152.986 32.6907 153.601 33.1153 154.052 33.67C154.502 34.2247 154.823 34.8833 155.014 35.646C155.204 36.4087 155.3 37.258 155.3 38.194V45.916H151.426V38.662C151.426 37.414 151.261 36.53 150.932 36.01C150.602 35.49 149.987 35.23 149.086 35.23C148.808 35.23 148.514 35.2473 148.202 35.282C147.89 35.2993 147.612 35.3253 147.37 35.36V45.916H143.496V32.708Z" fill="#6A768F"/>
<path d="M158.676 28.834L162.55 28.21V32.24H167.204V35.464H162.55V40.274C162.55 41.0887 162.689 41.7387 162.966 42.224C163.261 42.7093 163.842 42.952 164.708 42.952C165.124 42.952 165.549 42.9173 165.982 42.848C166.433 42.7613 166.84 42.6487 167.204 42.51L167.75 45.526C167.282 45.7167 166.762 45.8813 166.19 46.02C165.618 46.1587 164.916 46.228 164.084 46.228C163.027 46.228 162.152 46.0893 161.458 45.812C160.765 45.5173 160.21 45.1187 159.794 44.616C159.378 44.096 159.084 43.472 158.91 42.744C158.754 42.016 158.676 41.21 158.676 40.326V28.834Z" fill="#6A768F"/>
<path d="M169.201 39.182C169.201 37.9687 169.383 36.9113 169.747 36.01C170.129 35.0913 170.623 34.3287 171.229 33.722C171.836 33.1153 172.529 32.656 173.309 32.344C174.107 32.032 174.921 31.876 175.753 31.876C177.695 31.876 179.229 32.474 180.355 33.67C181.482 34.8487 182.045 36.5907 182.045 38.896C182.045 39.1213 182.037 39.3727 182.019 39.65C182.002 39.91 181.985 40.144 181.967 40.352H173.179C173.266 41.1493 173.639 41.782 174.297 42.25C174.956 42.718 175.84 42.952 176.949 42.952C177.66 42.952 178.353 42.8913 179.029 42.77C179.723 42.6313 180.286 42.4667 180.719 42.276L181.239 45.422C181.031 45.526 180.754 45.63 180.407 45.734C180.061 45.838 179.671 45.9247 179.237 45.994C178.821 46.0807 178.371 46.15 177.885 46.202C177.4 46.254 176.915 46.28 176.429 46.28C175.199 46.28 174.124 46.098 173.205 45.734C172.304 45.37 171.55 44.876 170.943 44.252C170.354 43.6107 169.912 42.8567 169.617 41.99C169.34 41.1233 169.201 40.1873 169.201 39.182ZM178.301 37.7C178.284 37.3707 178.223 37.05 178.119 36.738C178.033 36.426 177.885 36.1487 177.677 35.906C177.487 35.6633 177.235 35.464 176.923 35.308C176.629 35.152 176.256 35.074 175.805 35.074C175.372 35.074 174.999 35.152 174.687 35.308C174.375 35.4467 174.115 35.6373 173.907 35.88C173.699 36.1227 173.535 36.4087 173.413 36.738C173.309 37.05 173.231 37.3707 173.179 37.7H178.301Z" fill="#6A768F"/>
<path d="M193.277 35.672C192.93 35.5853 192.523 35.4987 192.055 35.412C191.587 35.308 191.084 35.256 190.547 35.256C190.304 35.256 190.01 35.282 189.663 35.334C189.334 35.3687 189.082 35.412 188.909 35.464V45.916H185.035V32.968C185.728 32.7253 186.543 32.5 187.479 32.292C188.432 32.0667 189.49 31.954 190.651 31.954C190.859 31.954 191.11 31.9713 191.405 32.006C191.7 32.0233 191.994 32.058 192.289 32.11C192.584 32.1447 192.878 32.1967 193.173 32.266C193.468 32.318 193.719 32.3873 193.927 32.474L193.277 35.672Z" fill="#6A768F"/>
<path fill-rule="evenodd" clip-rule="evenodd" d="M10.9886 16.006C9.65756 16.1133 8.47335 16.3296 7.7744 16.593C6.19301 17.1889 5.02367 18.2922 4.45547 19.7246C4.04709 20.754 3.93231 22.1924 4.16299 23.3896C4.36984 24.4631 4.91112 26.0319 5.49975 27.2638C6.27637 28.8893 7.21854 30.3784 8.40808 31.8604C8.77236 32.3143 8.85142 32.406 9.69417 33.3526C9.99075 33.6857 10.3573 34.0994 10.5087 34.2719C10.6601 34.4444 11.0024 34.8293 11.2695 35.1273C11.8878 35.8173 11.8981 35.8308 11.8855 35.9361C11.8702 36.0633 11.7827 36.0773 11.4318 36.0086C11.0147 35.927 10.1823 35.8037 9.37976 35.7047C5.98974 35.2864 3.58474 35.3464 2.01225 35.8884C1.5909 36.0336 1.48383 36.0837 1.09345 36.3179C0.790734 36.4995 0.389025 36.8773 0.254476 37.1069C0.106236 37.3599 0.00149906 37.7143 2.15872e-05 37.968C-0.00431234 38.7215 0.644431 39.74 1.49011 40.3074C1.72962 40.468 2.67498 41.0425 3.1087 41.2909C3.2351 41.3633 3.56015 41.5515 3.83102 41.7092C5.30712 42.5685 7.27748 43.6361 8.52611 44.2531C11.064 45.5072 11.6188 45.7555 11.7006 45.6736C11.7573 45.617 11.6997 45.5141 11.4076 45.1491C10.5537 44.0823 9.56819 43.0958 8.59178 42.3303C7.74702 41.6681 6.96521 41.1688 5.48908 40.3486C4.99248 40.0727 4.50491 39.7986 4.40559 39.7395C4.30627 39.6804 3.77438 39.3767 3.22361 39.0647C2.18908 38.4785 1.94313 38.3012 1.94313 38.1416C1.94313 37.8618 2.52575 37.7239 4.07726 37.6362C5.36999 37.5631 6.87994 37.612 9.3141 37.8058C10.8218 37.9258 13.2559 38.2067 13.7301 38.3155C14.6451 38.5253 15.5368 38.9665 16.2418 39.5583C17.1054 40.2831 17.9177 40.8791 19.1311 41.6777C22.4464 43.86 26.0581 45.5872 29.5884 46.6786C31.6661 47.3209 32.9116 47.5928 34.2999 47.707C34.7828 47.7468 36.365 47.7229 36.6474 47.6716C36.7467 47.6535 36.9831 47.6151 37.1727 47.5861C37.8712 47.4794 38.5053 47.2817 39.1263 46.9771C40.5963 46.2559 41.493 45.0714 41.8459 43.3848C41.9677 42.8028 42.047 41.894 41.9689 41.9746C41.9523 41.9917 41.8294 42.22 41.6959 42.4819C41.222 43.4112 40.7162 44.0004 39.9167 44.5548C38.9121 45.2513 37.6955 45.6072 36.1491 45.6572C35.1038 45.6909 33.8856 45.5408 32.7239 45.235C29.4696 44.3784 25.3942 42.7257 22.3217 41.0165C21.9638 40.8174 21.913 40.7878 21.0847 40.2967C18.8608 38.9781 16.82 37.4345 14.9285 35.6402C14.6396 35.3661 14.1235 34.8837 13.7817 34.5682C13.4399 34.2527 12.9007 33.7129 12.5833 33.3686C11.8179 32.5381 11.7409 32.4509 10.6717 31.2038C8.44074 28.6018 7.08685 25.976 6.70182 23.5045C6.61344 22.9372 6.58359 22.1214 6.63658 21.7213C6.89521 19.7682 8.10358 18.3497 10.0061 17.7659C10.4025 17.6442 11.0418 17.5131 11.4702 17.4656C12.2212 17.3824 13.7978 17.4359 14.6823 17.5747C14.8538 17.6016 15.0607 17.6333 15.1419 17.645C15.7948 17.7393 17.0793 18.0455 18.261 18.3885C19.087 18.6283 19.4788 18.7282 20.1653 18.8744C20.4994 18.9455 20.8097 19.0127 20.8548 19.0238C20.9349 19.0435 20.9345 19.042 20.8384 18.9597C20.6076 18.762 19.4345 18.0778 18.8356 17.7914C16.4068 16.6302 14.1053 16.0475 11.7766 16.0043C11.4335 15.998 11.0789 15.9987 10.9886 16.006ZM11.4646 22.4546C10.5057 22.5375 9.19078 22.8632 8.3715 23.2207C7.64248 23.5388 7.39338 23.6961 7.39338 23.8383C7.39338 23.9114 7.97097 25.258 8.34924 26.0669C8.9639 27.3814 9.77333 28.6962 10.7032 29.8905C11.5223 30.9427 12.9151 32.5594 13.6973 33.3661C15.4292 35.1524 17.6264 36.9523 20.0081 38.5359C20.9346 39.1519 21.1674 39.2993 22.1025 39.8614C22.7185 40.2317 23.553 40.7039 24.1217 41.0038C24.3023 41.0991 24.5103 41.2112 24.5839 41.253C24.9981 41.4877 27.1418 42.5313 27.7497 42.7941C27.8852 42.8527 28.1954 42.989 28.4392 43.0971C28.9498 43.3234 30.3119 43.8681 30.7703 44.0292C31.0391 44.1237 31.1254 44.1389 31.3942 44.1393C31.6594 44.1396 31.7278 44.1282 31.8515 44.0623C32.1205 43.919 32.238 43.7645 33.4403 41.9729C33.8402 41.3771 33.8818 41.3096 34.528 40.2048C35.6142 38.3482 36.4078 36.3071 36.828 34.2901C36.9373 33.7653 36.9566 33.7077 37.0455 33.6416C37.1309 33.578 37.133 33.578 37.2753 33.6413C37.3543 33.6765 37.475 33.7629 37.5434 33.8335C38.0468 34.3525 39.0696 36.3205 39.5297 37.6554C40.2717 39.8084 40.2232 42.1289 39.4131 43.231C39.3691 43.2908 39.3415 43.3482 39.3517 43.3585C39.3878 43.3946 39.7665 43.2283 40.0058 43.0711C40.1389 42.9837 40.3796 42.7741 40.5407 42.6053C41.1682 41.9477 41.4531 41.0964 41.4558 39.8716C41.4579 38.9062 41.2894 38.0453 40.9108 37.0876C40.4997 36.0475 39.7297 34.9182 38.4551 33.4857C37.5918 32.5156 36.2263 31.177 35.0888 30.186C34.3304 29.5251 34.2506 29.4466 34.2506 29.361C34.2506 29.263 34.3518 29.2354 34.6216 29.2598C34.9445 29.2891 35.4019 29.5529 36.1385 30.1347C36.5517 30.461 36.7696 30.5113 36.9011 30.3105C36.9818 30.1873 36.9674 29.766 36.8606 29.1308C36.7253 28.3264 36.514 27.6371 36.2078 27.0012C35.448 25.4235 34.2256 24.2547 32.5521 23.5055C30.6766 22.666 28.6816 22.5415 26.8304 23.1485C24.6153 23.8748 22.5036 25.7705 21.0211 28.3637C20.8921 28.5895 20.77 28.7742 20.7497 28.7742C20.7294 28.7742 20.6001 28.5821 20.4622 28.3473C19.556 26.8045 18.5488 25.566 17.3958 24.577C15.8295 23.2334 14.0347 22.4913 12.2362 22.4435C11.9653 22.4363 11.6181 22.4413 11.4646 22.4546ZM5.0154 28.2713C4.93706 28.6358 4.8335 30.1448 4.83288 30.9309C4.83212 31.9157 5.02072 33.8155 5.16515 34.2781C5.24884 34.5461 5.39639 34.711 5.59572 34.7593C5.6865 34.7814 6.42442 34.7892 7.70529 34.7818C8.78877 34.7755 9.68632 34.7694 9.69988 34.7683C9.76762 34.7624 9.70914 34.615 9.58451 34.4774C9.30041 34.1639 9.03981 33.8548 8.78628 33.5306C8.3561 32.9807 8.04248 32.5712 7.98726 32.4873C7.9586 32.4438 7.80441 32.2258 7.64465 32.003C7.18144 31.3568 6.32536 30.0628 5.72583 29.1025C5.31326 28.4416 5.15448 28.2134 5.10208 28.2057C5.05082 28.1981 5.02732 28.2159 5.0154 28.2713ZM26.589 31.0873C27.25 31.2321 27.4458 31.5301 27.3104 32.185C27.2016 32.7108 27.262 33.2052 27.4598 33.4094C27.6221 33.5768 27.7385 33.5988 28.2308 33.5556C28.7079 33.5137 29.152 33.5432 29.3149 33.6277C29.4492 33.6973 29.5445 33.833 29.5863 34.0143C29.6046 34.0937 29.6199 34.5419 29.6204 35.0102C29.6213 35.9968 29.5925 36.1727 29.3989 36.3607C29.2168 36.5375 29.0134 36.5905 28.5705 36.5762C27.6437 36.5465 27.6412 36.5466 27.51 36.6467C27.4242 36.7123 27.3753 36.7861 27.3363 36.9094C27.2548 37.167 27.2398 37.6271 27.3028 37.932C27.3715 38.2642 27.3687 38.4281 27.2912 38.5987C27.1597 38.8885 26.8606 38.9687 25.9114 38.9687C24.9964 38.9687 24.6058 38.881 24.4235 38.6344C24.3445 38.5275 24.3392 38.3672 24.3983 37.8688C24.4828 37.1559 24.3923 36.7658 24.1075 36.6152C23.9809 36.5483 23.9178 36.5391 23.5821 36.5391C23.3723 36.5391 23.0754 36.5548 22.9224 36.574C22.5912 36.6156 22.4657 36.5971 22.3356 36.4876C22.2064 36.3789 22.1484 36.1869 22.0834 35.6526C22.0374 35.275 22.035 35.1389 22.0674 34.7333C22.135 33.8855 22.1849 33.6987 22.375 33.5828C22.5048 33.5037 22.6981 33.5005 23.2484 33.5687C24.0193 33.6641 24.3136 33.5142 24.4296 32.9669C24.4833 32.7135 24.4751 32.4834 24.3983 32.0854C24.3594 31.8835 24.339 31.6859 24.3507 31.6234C24.3808 31.463 24.5418 31.2993 24.7437 31.2237C25.3633 30.9918 25.9545 30.9481 26.589 31.0873ZM6.98747 38.3349C6.97597 38.3465 6.96655 38.3744 6.96655 38.397C6.96655 38.5038 7.76685 39.7771 8.27514 40.479C8.98945 41.4655 9.67811 42.236 10.4242 42.8836C12.2668 44.4828 13.994 46.4378 15.044 48.1127C15.6116 49.018 16.1152 50.1918 16.2423 50.9054C16.2711 51.0669 16.3034 51.4458 16.3142 51.7475C16.3418 52.5204 16.2659 52.4702 17.6536 52.6335C18.3813 52.7191 18.6637 52.7378 19.2296 52.7379C20.3495 52.7382 20.7129 52.6363 22.2502 51.8908C24.3874 50.8544 26.2773 49.6379 27.4132 48.5673C27.5793 48.4107 27.6184 48.3545 27.6184 48.2719C27.6184 48.2158 27.5984 48.1534 27.574 48.1331C27.5496 48.1129 27.28 47.9686 26.9748 47.8126C24.9571 46.7807 22.7659 45.4578 21.1175 44.2763C18.589 42.464 16.6776 40.9842 15.5507 39.9665C15.1388 39.5946 14.9502 39.4826 14.477 39.3286C13.9664 39.1624 13.5696 39.0889 12.6295 38.9861C12.3951 38.9605 12.0261 38.9171 11.8094 38.8896C11.2122 38.8139 8.8221 38.5235 8.13212 38.4427C7.96959 38.4237 7.74059 38.3948 7.62321 38.3785C7.28004 38.3309 7.00999 38.3124 6.98747 38.3349ZM9.16635 50.5252C8.08822 50.6659 7.05484 51.4991 6.62726 52.5723C6.45623 53.0016 6.40081 53.3179 6.39897 53.8748C6.39746 54.3273 6.40702 54.4197 6.48519 54.7078C6.66298 55.3632 6.96639 55.8777 7.44164 56.3299C8.02393 56.8839 8.76392 57.2041 9.56034 57.2465C9.87127 57.263 9.94646 57.2547 10.327 57.162C11.2694 56.9325 11.9056 56.4804 12.4615 55.6455C12.7679 55.1853 12.7789 55.1821 13.786 55.268C14.3088 55.3126 14.7658 55.3401 16.3239 55.4204C19.2538 55.5715 22.5096 55.4192 23.8037 55.0704C24.4748 54.8895 25.2933 54.5184 25.6354 54.2397C26.2646 53.7275 26.4045 52.8783 25.9823 52.1347C25.7601 51.7433 25.4287 51.3967 25.2433 51.3619C25.0609 51.3277 24.7807 51.4056 24.3993 51.5966C24.0028 51.7951 23.8551 51.92 23.8246 52.0827C23.801 52.2081 23.84 52.297 24.0588 52.6166C24.2163 52.8465 24.2369 52.9482 24.1434 53.0328C24.0885 53.0825 23.4016 53.2438 23.0218 53.2961C21.7151 53.4762 19.4806 53.5258 17.4895 53.4188C16.3029 53.355 15.1242 53.2819 14.7972 53.2517C14.6166 53.235 14.2161 53.1998 13.9071 53.1735C13.0758 53.1025 12.9276 53.019 12.6773 52.4801C12.1797 51.4092 11.2776 50.7027 10.1842 50.5277C9.94826 50.49 9.44602 50.4887 9.16635 50.5252ZM10.3702 51.4702C10.7576 51.6075 10.9845 51.7533 11.302 52.069C11.5426 52.3084 11.6067 52.3972 11.7521 52.6929C11.9757 53.1476 12.0363 53.4466 12.014 53.9857C11.9954 54.4357 11.9392 54.6755 11.7746 55.0076C11.4698 55.6225 11.0274 56.0222 10.399 56.2505C9.87094 56.4422 9.15082 56.3976 8.64408 56.1418C8.0327 55.8332 7.53761 55.2123 7.35923 54.5305C7.19169 53.8902 7.25791 53.3003 7.56926 52.66C7.68004 52.4322 7.76229 52.3229 8.01704 52.0646C8.33598 51.7414 8.50785 51.6295 8.92486 51.4734C9.34503 51.3162 9.93204 51.3149 10.3702 51.4702ZM9.38131 51.8072C8.94909 51.86 8.40896 52.2008 8.13885 52.5911C8.00105 52.7903 7.89736 53.0166 7.83675 53.2506C7.77224 53.4995 7.77194 54.0972 7.83619 54.344C7.9473 54.7705 8.27697 55.2445 8.63288 55.4894C8.98557 55.732 9.45521 55.8414 9.89192 55.7826C10.9134 55.6451 11.6119 54.7597 11.5525 53.6778C11.5228 53.1355 11.3312 52.6979 10.961 52.3264C10.5448 51.9088 10.004 51.7311 9.38131 51.8072Z" fill="#48BDCE"/>
<path fill-rule="evenodd" clip-rule="evenodd" d="M11.4647 22.4545C10.5057 22.5375 9.19079 22.8631 8.37151 23.2207C7.64249 23.5388 7.39339 23.6961 7.39339 23.8383C7.39339 23.9113 7.97098 25.258 8.34925 26.0669C8.96391 27.3813 9.77334 28.6961 10.7032 29.8904C11.5223 30.9426 12.9151 32.5593 13.6973 33.3661C15.4292 35.1524 17.6264 36.9523 20.0081 38.5359C20.9346 39.1519 21.1674 39.2992 22.1025 39.8613C22.7185 40.2316 23.553 40.7038 24.1217 41.0038C24.3023 41.0991 24.5103 41.2112 24.5839 41.2529C24.9981 41.4877 27.1418 42.5313 27.7497 42.7941C27.8852 42.8526 28.1954 42.989 28.4392 43.097C28.9498 43.3234 30.3119 43.868 30.7703 44.0292C31.0391 44.1236 31.1254 44.1389 31.3942 44.1392C31.6595 44.1396 31.7278 44.1281 31.8515 44.0622C32.1205 43.919 32.238 43.7645 33.4403 41.9729C33.8402 41.377 33.8818 41.3095 34.5281 40.2048C35.6142 38.3481 36.4078 36.3071 36.828 34.29C36.9373 33.7653 36.9566 33.7077 37.0455 33.6415C37.1309 33.578 37.133 33.578 37.2753 33.6413C37.3543 33.6764 37.475 33.7629 37.5434 33.8334C38.0468 34.3525 39.0697 36.3205 39.5297 37.6554C40.2717 39.8084 40.2232 42.1289 39.4131 43.2309C39.3691 43.2908 39.3415 43.3482 39.3517 43.3584C39.3878 43.3946 39.7665 43.2282 40.0058 43.0711C40.1389 42.9837 40.3796 42.7741 40.5407 42.6053C41.1682 41.9476 41.4531 41.0964 41.4558 39.8716C41.4579 38.9062 41.2894 38.0452 40.9109 37.0876C40.4997 36.0474 39.7297 34.9181 38.4551 33.4856C37.5918 32.5155 36.2263 31.1769 35.0888 30.1859C34.3304 29.5251 34.2506 29.4466 34.2506 29.361C34.2506 29.2629 34.3518 29.2353 34.6216 29.2598C34.9445 29.2891 35.4019 29.5529 36.1385 30.1346C36.5517 30.461 36.7696 30.5112 36.9011 30.3105C36.9819 30.1872 36.9674 29.766 36.8606 29.1308C36.7253 28.3264 36.514 27.6371 36.2078 27.0011C35.448 25.4235 34.2256 24.2546 32.5521 23.5055C30.6766 22.666 28.6816 22.5415 26.8304 23.1485C24.6153 23.8748 22.5036 25.7705 21.0211 28.3637C20.8921 28.5894 20.77 28.7741 20.7497 28.7741C20.7294 28.7741 20.6001 28.582 20.4622 28.3473C19.556 26.8045 18.5488 25.566 17.3958 24.577C15.8295 23.2333 14.0347 22.4912 12.2362 22.4435C11.9654 22.4363 11.6181 22.4413 11.4647 22.4545ZM5.01541 28.2713C4.93707 28.6357 4.83351 30.1448 4.83289 30.9309C4.83213 31.9156 5.02072 33.8154 5.16516 34.278C5.24885 34.546 5.3964 34.7109 5.59573 34.7593C5.68651 34.7813 6.42443 34.7892 7.7053 34.7818C8.78878 34.7755 9.68633 34.7694 9.69989 34.7682C9.76763 34.7624 9.70915 34.615 9.58452 34.4774C9.30041 34.1638 9.03982 33.8547 8.78629 33.5306C8.35611 32.9806 8.04249 32.5712 7.98727 32.4873C7.9586 32.4438 7.80442 32.2258 7.64466 32.0029C7.18145 31.3568 6.32537 30.0627 5.72584 29.1024C5.31326 28.4416 5.15448 28.2133 5.10208 28.2056C5.05083 28.1981 5.02732 28.2159 5.01541 28.2713ZM26.589 31.0872C27.25 31.2321 27.4458 31.5301 27.3104 32.185C27.2016 32.7108 27.262 33.2052 27.4598 33.4093C27.6221 33.5767 27.7385 33.5988 28.2309 33.5556C28.708 33.5137 29.152 33.5432 29.3149 33.6277C29.4493 33.6973 29.5445 33.833 29.5863 34.0142C29.6046 34.0937 29.6199 34.5418 29.6204 35.0102C29.6213 35.9968 29.5925 36.1727 29.3989 36.3606C29.2168 36.5375 29.0134 36.5904 28.5705 36.5762C27.6437 36.5464 27.6412 36.5466 27.51 36.6467C27.4242 36.7122 27.3753 36.7861 27.3363 36.9094C27.2548 37.1669 27.2398 37.627 27.3028 37.9319C27.3715 38.2642 27.3687 38.4281 27.2912 38.5986C27.1597 38.8885 26.8606 38.9687 25.9114 38.9687C24.9964 38.9687 24.6059 38.8809 24.4235 38.6343C24.3445 38.5275 24.3392 38.3671 24.3983 37.8688C24.4828 37.1559 24.3923 36.7658 24.1075 36.6152C23.9809 36.5482 23.9178 36.5391 23.5821 36.5391C23.3723 36.5391 23.0755 36.5548 22.9225 36.574C22.5912 36.6155 22.4657 36.5971 22.3356 36.4876C22.2064 36.3788 22.1484 36.1869 22.0834 35.6526C22.0374 35.275 22.035 35.1388 22.0674 34.7333C22.135 33.8855 22.1849 33.6986 22.375 33.5828C22.5048 33.5036 22.6981 33.5005 23.2484 33.5686C24.0193 33.6641 24.3136 33.5141 24.4296 32.9669C24.4833 32.7134 24.4751 32.4834 24.3984 32.0854C24.3594 31.8835 24.339 31.6858 24.3507 31.6234C24.3808 31.4629 24.5418 31.2992 24.7437 31.2237C25.3633 30.9918 25.9545 30.9481 26.589 31.0872ZM6.98747 38.3349C6.97598 38.3464 6.96656 38.3744 6.96656 38.397C6.96656 38.5038 7.76686 39.7771 8.27514 40.479C8.98946 41.4655 9.67812 42.236 10.4242 42.8835C12.2668 44.4828 13.994 46.4378 15.044 48.1126C15.6116 49.0179 16.1153 50.1917 16.2423 50.9054C16.2711 51.0668 16.3034 51.4458 16.3142 51.7475C16.3418 52.5203 16.2659 52.4701 17.6536 52.6334C18.3813 52.719 18.6637 52.7378 19.2296 52.7379C20.3495 52.7382 20.7129 52.6363 22.2502 51.8908C24.3874 50.8544 26.2773 49.6378 27.4132 48.5672C27.5794 48.4107 27.6184 48.3544 27.6184 48.2719C27.6184 48.2158 27.5984 48.1533 27.574 48.1331C27.5496 48.1128 27.28 47.9686 26.9748 47.8125C24.9571 46.7806 22.7659 45.4577 21.1175 44.2762C18.589 42.4639 16.6776 40.9842 15.5507 39.9665C15.1388 39.5946 14.9502 39.4825 14.477 39.3285C13.9664 39.1624 13.5696 39.0888 12.6295 38.9861C12.3951 38.9605 12.0261 38.9171 11.8094 38.8896C11.2122 38.8139 8.82211 38.5234 8.13212 38.4427C7.9696 38.4236 7.74059 38.3948 7.62322 38.3785C7.28005 38.3309 7.01 38.3124 6.98747 38.3349ZM9.38131 51.8071C8.9491 51.8599 8.40897 52.2007 8.13886 52.5911C8.00106 52.7903 7.89737 53.0165 7.83676 53.2505C7.77224 53.4995 7.77195 54.0972 7.8362 54.3439C7.94731 54.7704 8.27698 55.2444 8.63289 55.4893C8.98558 55.7319 9.45522 55.8413 9.89193 55.7826C10.9134 55.6451 11.6119 54.7597 11.5525 53.6778C11.5228 53.1355 11.3312 52.6979 10.961 52.3263C10.5448 51.9088 10.0041 51.731 9.38131 51.8071Z" fill="#D8635A"/>
</svg>
